<?xml version="1.0" encoding="utf-8"?>
<svg xmlns="http://www.w3.org/2000/svg" fill="none" viewBox="0 0 22 18" width="32" height="32">
  <path d="M21.1849 4.93182C21.1848 4.93192 21.185 4.93202 21.1851 4.93194C21.1851 4.93187 21.1851 4.93176 21.185 4.93176H20.5574C20.5062 4.93176 20.4629 4.89339 20.4576 4.84263C20.4301 4.58701 20.3294 3.84024 20.0387 3.37788C19.7988 2.9963 19.417 2.53735 18.8624 2.20497C17.8714 1.61165 16.2955 0.694584 16.1752 0.627174C16.1745 0.626787 16.1756 0.627882 16.1756 0.627882C16.1076 0.58765 16.0209 0.596935 15.9632 0.650164L15.2474 1.30935C15.2059 1.34772 15.1417 1.34401 15.1042 1.30161C15.0475 1.23724 14.9932 1.17039 14.9402 1.10231C14.7761 0.884128 14.5758 0.713607 14.3382 0.584556C13.9969 0.385872 13.6358 0.215041 13.2552 0.0962027C13.1258 0.0568992 12.9938 0.021619 12.8525 0.000884105C12.8291 -0.00221065 12.8051 0.00274096 12.7849 0.0169768C12.7424 0.0460676 12.7321 0.104868 12.7621 0.146028C12.8441 0.262082 12.9355 0.362971 13.0291 0.459837C13.3064 0.743626 13.6233 0.986874 13.9561 1.19917C14.0671 1.26912 14.1769 1.33937 14.3004 1.38919C14.452 1.45264 14.6211 1.48544 14.7879 1.52041C14.8665 1.53743 14.8943 1.63523 14.835 1.68969L14.2652 2.21549C14.1897 2.28543 14.2396 2.41108 14.3429 2.41108H15.3803C15.4545 2.41108 15.4829 2.50578 15.4211 2.54601C15.4143 2.55113 15.4134 2.55001 15.4073 2.55604C15.1933 2.76855 0.0526559 17.6983 0.0526559 17.6983C-0.0131573 17.7639 -0.0131573 17.8558 0.0298864 17.9211C0.0601418 17.9678 0.112855 18 0.178668 18H2.84301C2.89167 18 2.93658 17.9752 2.9631 17.9347C3.62965 16.9246 4.61872 16.1422 5.78433 15.7315C5.81271 15.7213 5.8411 15.7111 5.86948 15.7015C6.25157 15.5715 6.64864 15.4852 7.03509 15.4459C7.24251 15.4227 7.45305 15.4106 7.6664 15.4106H14.0369C14.1648 15.4106 14.2926 15.4007 14.419 15.3809C15.0369 15.2825 16.4046 14.9656 17.3687 14.009C18.6503 12.7371 19.0062 11.6068 19.0777 9.9821C19.1269 8.84973 19.107 7.68269 19.0908 7.07984C19.0839 6.81307 19.0976 6.54661 19.1326 6.28232C19.1419 6.21052 19.1881 6.14831 19.2533 6.11551L21.2305 5.11992C21.3246 5.07289 21.2907 4.93182 21.185 4.93176C21.185 4.93176 21.1849 4.93178 21.1849 4.93182ZM18.2182 4.54616C18.2182 4.54616 18.2183 4.54622 18.2182 4.54624C18.1112 4.61581 17.9747 4.64703 17.8319 4.61826C17.6248 4.57679 17.4626 4.40627 17.4308 4.19892C17.3952 3.96682 17.5184 3.7573 17.7096 3.66353C17.8063 3.61587 17.9192 3.59699 18.0381 3.6199C18.2449 3.66013 18.4102 3.82786 18.4442 4.03428C18.4791 4.24684 18.3803 4.44052 18.2182 4.54607C18.2181 4.5461 18.2181 4.54616 18.2182 4.54616Z" fill="#FAFAFA"/>
</svg>