<?xml version="1.0" encoding="utf-8"?>
<svg xmlns="http://www.w3.org/2000/svg" fill="none" viewBox="0 0 120 18" height="18">
  <!-- Icon (bird) -->
  <g transform="translate(0, 0) scale(1)">
    <path d="M21.1849 4.93182C21.1848 4.93192 21.185 4.93202 21.1851 4.93194C21.1851 4.93187 21.1851 4.93176 21.185 4.93176H20.5574C20.5062 4.93176 20.4629 4.89339 20.4576 4.84263C20.4301 4.58701 20.3294 3.84024 20.0387 3.37788C19.7988 2.9963 19.417 2.53735 18.8624 2.20497C17.8714 1.61165 16.2955 0.694584 16.1752 0.627174C16.1745 0.626787 16.1756 0.627882 16.1756 0.627882C16.1076 0.58765 16.0209 0.596935 15.9632 0.650164L15.2474 1.30935C15.2059 1.34772 15.1417 1.34401 15.1042 1.30161C15.0475 1.23724 14.9932 1.17039 14.9402 1.10231C14.7761 0.884128 14.5758 0.713607 14.3382 0.584556C13.9969 0.385872 13.6358 0.215041 13.2552 0.0962027C13.1258 0.0568992 12.9938 0.021619 12.8525 0.000884105C12.8291 -0.00221065 12.8051 0.00274096 12.7849 0.0169768C12.7424 0.0460676 12.7321 0.104868 12.7621 0.146028C12.8441 0.262082 12.9355 0.362971 13.0291 0.459837C13.3064 0.743626 13.6233 0.986874 13.9561 1.19917C14.0671 1.26912 14.1769 1.33937 14.3004 1.38919C14.452 1.45264 14.6211 1.48544 14.7879 1.52041C14.8665 1.53743 14.8943 1.63523 14.835 1.68969L14.2652 2.21549C14.1897 2.28543 14.2396 2.41108 14.3429 2.41108H15.3803C15.4545 2.41108 15.4829 2.50578 15.4211 2.54601C15.4143 2.55113 15.4134 2.55001 15.4073 2.55604C15.1933 2.76855 0.0526559 17.6983 0.0526559 17.6983C-0.0131573 17.7639 -0.0131573 17.8558 0.0298864 17.9211C0.0601418 17.9678 0.112855 18 0.178668 18H2.84301C2.89167 18 2.93658 17.9752 2.9631 17.9347C3.62965 16.9246 4.61872 16.1422 5.78433 15.7315C5.81271 15.7213 5.8411 15.7111 5.86948 15.7015C6.25157 15.5715 6.64864 15.4852 7.03509 15.4459C7.24251 15.4227 7.45305 15.4106 7.6664 15.4106H14.0369C14.1648 15.4106 14.2926 15.4007 14.419 15.3809C15.0369 15.2825 16.4046 14.9656 17.3687 14.009C18.6503 12.7371 19.0062 11.6068 19.0777 9.9821C19.1269 8.84973 19.107 7.68269 19.0908 7.07984C19.0839 6.81307 19.0976 6.54661 19.1326 6.28232C19.1419 6.21052 19.1881 6.14831 19.2533 6.11551L21.2305 5.11992C21.3246 5.07289 21.2907 4.93182 21.185 4.93176C21.185 4.93176 21.1849 4.93178 21.1849 4.93182ZM18.2182 4.54616C18.2182 4.54616 18.2183 4.54622 18.2182 4.54624C18.1112 4.61581 17.9747 4.64703 17.8319 4.61826C17.6248 4.57679 17.4626 4.40627 17.4308 4.19892C17.3952 3.96682 17.5184 3.7573 17.7096 3.66353C17.8063 3.61587 17.9192 3.59699 18.0381 3.6199C18.2449 3.66013 18.4102 3.82786 18.4442 4.03428C18.4791 4.24684 18.3803 4.44052 18.2182 4.54607C18.2181 4.5461 18.2181 4.54616 18.2182 4.54616Z" fill="#101010"/>
  </g>
  <!-- Wordmark "robbin" -->
  <g transform="translate(27, 1) scale(1)">
    <path d="M5.42984 3.92034C2.07713 3.92034 0 5.53567 0 9.14547V15.4136H2.39936L2.39936 9.14547C2.39936 6.99881 3.52314 5.95753 5.43251 5.95753C5.72011 5.95753 5.99174 5.97889 6.24472 6.02427V3.94971C5.98375 3.92835 5.71212 3.91767 5.43251 3.91767H5.42984V3.92034Z" fill="#101010"/>
    <path d="M7.493 9.63583C7.493 5.727 9.95361 3.85802 13.3489 3.85802C16.7442 3.85802 19.2048 5.727 19.2048 9.63583C19.2048 13.5447 16.7655 15.4136 13.3489 15.4136C9.9323 15.4136 7.493 13.5447 7.493 9.63583ZM16.7655 9.63583C16.7655 7.04329 15.3648 5.79108 13.3516 5.79108C11.3384 5.79108 9.95627 7.04329 9.95627 9.63583C9.95627 12.2284 11.3357 13.4592 13.3702 13.4592C15.4048 13.4592 16.7655 12.2284 16.7655 9.63583Z" fill="#101010"/>
    <path d="M23.394 13.6444H23.181L22.9679 15.4136H20.7816V0.0115305H23.181V5.72347H23.394C24.2834 4.40717 25.5377 3.85449 27.1941 3.85449C29.9956 3.85449 32.2857 5.80891 32.2857 9.6323C32.2857 13.4557 29.9956 15.4074 27.1941 15.4074C25.5617 15.4074 24.3074 14.9206 23.394 13.647V13.6444ZM29.8464 9.62963C29.8464 7.16525 28.4457 5.84895 26.4937 5.84895C24.5417 5.84895 23.141 7.18661 23.141 9.62963C23.141 12.0726 24.5417 13.4103 26.4937 13.4103C28.4457 13.4103 29.8464 12.0726 29.8464 9.62963Z" fill="#101010"/>
    <path d="M36.4749 13.6444H36.2618L36.0488 15.4136H33.8625V0.0115305H36.2618V5.72347H36.4749C37.3643 4.40717 38.6186 3.85449 40.275 3.85449C43.0764 3.85449 45.3666 5.80891 45.3666 9.6323C45.3666 13.4557 43.0764 15.4074 40.275 15.4074C38.6426 15.4074 37.3883 14.9206 36.4749 13.647V13.6444ZM42.9273 9.62963C42.9273 7.16525 41.5266 5.84895 39.5746 5.84895C37.6226 5.84895 36.2219 7.18661 36.2219 9.62963C36.2219 12.0726 37.6226 13.4103 39.5746 13.4103C41.5266 13.4103 42.9273 12.0726 42.9273 9.62963Z" fill="#101010"/>
    <path d="M46.9434 1.46314C46.9434 0.614092 47.5585 0 48.4054 0C49.2522 0 49.8674 0.614092 49.8674 1.46314C49.8674 2.31219 49.2522 2.92628 48.4054 2.92628C47.5585 2.92628 46.9434 2.31219 46.9434 1.46314ZM47.199 15.4136V3.88634H49.5984V15.4136H47.199Z" fill="#101010"/>
    <path d="M51.9697 15.4136V9.1428C51.9697 5.53033 54.0495 3.91767 57.4022 3.91767C60.7549 3.91767 62.8347 5.42353 62.8347 9.036V15.4136H60.4353V9.036C60.4353 6.9107 59.3116 5.95753 57.4022 5.95753C55.4928 5.95753 54.369 6.99614 54.369 9.1428V15.4136H51.9697Z" fill="#101010"/>
  </g>
</svg>